<?xml version="1.0" encoding="UTF-8"?>
<svg version="1.1" xmlns="http://www.w3.org/2000/svg" width="32" height="32">
<path d="M0 0 C0 0.99 0 1.98 0 3 C0.99 3.33 1.98 3.66 3 4 C2.34 4 1.68 4 1 4 C1.33 5.32 1.66 6.64 2 8 C2 7.34 2 6.68 2 6 C2.66 6 3.32 6 4 6 C4.33 7.98 4.66 9.96 5 12 C5.99 12.33 6.98 12.66 8 13 C8 14.65 8 16.3 8 18 C7.01 18.33 6.02 18.66 5 19 C4.67 19.99 4.34 20.98 4 22 C2.35 22.33 0.7 22.66 -1 23 C-0.67 23.99 -0.34 24.98 0 26 C-0.66 26.33 -1.32 26.66 -2 27 C-2.495 26.05125 -2.99 25.1025 -3.5 24.125 C-5.38034194 21.23635876 -6.91690316 20.42872548 -10.25 19.625 C-12.10625 19.315625 -12.10625 19.315625 -14 19 C-14 18.01 -14 17.02 -14 16 C-15.98 15.67 -17.96 15.34 -20 15 C-20.43391466 10.66085336 -20.31529878 8.51236051 -18 4.75 C-12.88158599 -0.64313115 -7.00131852 -1.60446883 0 0 Z M-3 4 C-2.34 4.66 -1.68 5.32 -1 6 C-1 5.34 -1 4.68 -1 4 C-1.66 4 -2.32 4 -3 4 Z M-14 6 C-14.33 6.66 -14.66 7.32 -15 8 C-13.68 9.32 -12.36 10.64 -11 12 C-11.33 10.02 -11.66 8.04 -12 6 C-12.66 6 -13.32 6 -14 6 Z M-7 7 C-7.33 7.66 -7.66 8.32 -8 9 C-7.34 9 -6.68 9 -6 9 C-6.33 8.34 -6.66 7.68 -7 7 Z M-10 8 C-10 8.99 -10 9.98 -10 11 C-9.34 10.67 -8.68 10.34 -8 10 C-8.66 9.34 -9.32 8.68 -10 8 Z M0 10 C-0.33 10.99 -0.66 11.98 -1 13 C-0.01 12.67 0.98 12.34 2 12 C2 11.34 2 10.68 2 10 C1.34 10 0.68 10 0 10 Z M3 11 C4 13 4 13 4 13 Z M-9 13 C-9 13.66 -9 14.32 -9 15 C-9.99 15.495 -9.99 15.495 -11 16 C-6.52116304 15.55296014 -6.52116304 15.55296014 -3 13 C-4.98 13 -6.96 13 -9 13 Z " fill="#3E7DD3" transform="translate(22,3)"/>
<path d="M0 0 C0 0.99 0 1.98 0 3 C0.99 3.33 1.98 3.66 3 4 C2.34 4 1.68 4 1 4 C1.33 5.98 1.66 7.96 2 10 C-1.6441774 12.4294516 -3.71241272 12.16179575 -8 12 C-8.99 10.02 -9.98 8.04 -11 6 C-13.64 6.66 -16.28 7.32 -19 8 C-17.49235345 3.77858966 -14.78707131 2.19650136 -11 0 C-7.27965788 -1.56014347 -3.89440151 -0.67403103 0 0 Z M-3 4 C-2.34 4.66 -1.68 5.32 -1 6 C-1 5.34 -1 4.68 -1 4 C-1.66 4 -2.32 4 -3 4 Z M-7 7 C-7.33 7.66 -7.66 8.32 -8 9 C-7.34 9 -6.68 9 -6 9 C-6.33 8.34 -6.66 7.68 -7 7 Z " fill="#D54198" transform="translate(22,3)"/>
<path d="M0 0 C0.66 0 1.32 0 2 0 C2.33 1.98 2.66 3.96 3 6 C3.99 6.33 4.98 6.66 6 7 C6 8.65 6 10.3 6 12 C5.01 12.33 4.02 12.66 3 13 C2.67 13.99 2.34 14.98 2 16 C0.35 16.33 -1.3 16.66 -3 17 C-2.67 17.99 -2.34 18.98 -2 20 C-2.66 20.33 -3.32 20.66 -4 21 C-7.875 15.375 -7.875 15.375 -9 12 C-6.69 11.34 -4.38 10.68 -2 10 C-2.33 9.01 -2.66 8.02 -3 7 C-2.2575 6.38125 -2.2575 6.38125 -1.5 5.75 C0.43386092 3.87797662 0.43386092 3.87797662 0 0 Z M1 5 C2 7 2 7 2 7 Z " fill="#5B42B4" transform="translate(24,9)"/>
<path d="M0 0 C0.103125 0.639375 0.20625 1.27875 0.3125 1.9375 C0.6528125 2.9584375 0.6528125 2.9584375 1 4 C1.99 4.33 2.98 4.66 4 5 C4 5.66 4 6.32 4 7 C3.01 7.495 3.01 7.495 2 8 C2.33 8.66 2.66 9.32 3 10 C2.01 10 1.02 10 0 10 C-0.66 8.68 -1.32 7.36 -2 6 C-4.64 6.66 -7.28 7.32 -10 8 C-8.48502075 3.75805811 -4.70198172 0 0 0 Z " fill="#9A51C7" transform="translate(13,3)"/>
<path d="M0 0 C0.66 0 1.32 0 2 0 C2.33 1.98 2.66 3.96 3 6 C3.99 6.33 4.98 6.66 6 7 C6 8.65 6 10.3 6 12 C5.01 12 4.02 12 3 12 C3 11.34 3 10.68 3 10 C0.03 9.505 0.03 9.505 -3 9 C-3 8.34 -3 7.68 -3 7 C-2.505 6.54625 -2.01 6.0925 -1.5 5.625 C0.45218674 3.87871033 0.45218674 3.87871033 0 0 Z M1 5 C2 7 2 7 2 7 Z " fill="#D449A9" transform="translate(24,9)"/>
<path d="M0 0 C0.66 0 1.32 0 2 0 C2.33 1.65 2.66 3.3 3 5 C5.31 5 7.62 5 10 5 C8.9375 6.5625 8.9375 6.5625 7 8 C3.3125 7.6875 3.3125 7.6875 0 7 C0 4.69 0 2.38 0 0 Z " fill="#3B74DF" transform="translate(2,11)"/>
<path d="M0 0 C0.99 0.33 1.98 0.66 3 1 C2.34 1 1.68 1 1 1 C1.33 2.98 1.66 4.96 2 7 C1.01 7.33 0.02 7.66 -1 8 C-1.99 7.34 -2.98 6.68 -4 6 C-4.1875 3.375 -4.1875 3.375 -4 1 C-3.01 1 -2.02 1 -1 1 C-0.67 0.67 -0.34 0.34 0 0 Z " fill="#E05994" transform="translate(22,6)"/>
<path d="M0 0 C3 1 3 1 4.6875 4.0625 C5.120625 5.031875 5.55375 6.00125 6 7 C4.02 7 2.04 7 0 7 C-0.38133299 5.0085944 -0.71325582 3.00720923 -1 1 C-0.67 0.67 -0.34 0.34 0 0 Z " fill="#1881D5" transform="translate(5,9)"/>
<path d="M0 0 C0.33 0.99 0.66 1.98 1 3 C-0.27875 2.95875 -1.5575 2.9175 -2.875 2.875 C-5.01871492 2.75787127 -5.01871492 2.75787127 -7 3 C-7.66 3.66 -8.32 4.32 -9 5 C-9.99 4.67 -10.98 4.34 -12 4 C-12 3.34 -12 2.68 -12 2 C-7.8803623 0.70756464 -4.33168317 -0.26252625 0 0 Z " fill="#5D1B92" transform="translate(27,19)"/>
<path d="M0 0 C0.66 0.33 1.32 0.66 2 1 C2 2.65 2 4.3 2 6 C2.66 6.33 3.32 6.66 4 7 C4 7.66 4 8.32 4 9 C1.69 9 -0.62 9 -3 9 C-3 8.34 -3 7.68 -3 7 C-2.34 7 -1.68 7 -1 7 C-0.67 4.69 -0.34 2.38 0 0 Z " fill="#94289E" transform="translate(17,6)"/>
<path d="M0 0 C0.99 0 1.98 0 3 0 C3 0.66 3 1.32 3 2 C3.99 2.33 4.98 2.66 6 3 C6 3.66 6 4.32 6 5 C5.01 5.495 5.01 5.495 4 6 C4.33 6.66 4.66 7.32 5 8 C4.01 8 3.02 8 2 8 C0 2.25 0 2.25 0 0 Z " fill="#DD6BC8" transform="translate(11,5)"/>
<path d="M0 0 C0.66 1.32 1.32 2.64 2 4 C-1.08809695 5.76462683 -2.23312136 6 -6 6 C-5.8125 4.125 -5.8125 4.125 -5 2 C-2.4375 0.75 -2.4375 0.75 0 0 Z " fill="#3585DB" transform="translate(20,15)"/>
<path d="M0 0 C0.66 0 1.32 0 2 0 C2.33 1.98 2.66 3.96 3 6 C3.66 6 4.32 6 5 6 C4.67 7.32 4.34 8.64 4 10 C3.54625 9.525625 3.0925 9.05125 2.625 8.5625 C1.06741796 6.90972192 1.06741796 6.90972192 -1 6 C-0.67 4.02 -0.34 2.04 0 0 Z " fill="#E15882" transform="translate(24,9)"/>
<path d="M0 0 C1.98 0 3.96 0 6 0 C6 0.99 6 1.98 6 3 C4.35 3 2.7 3 1 3 C0.67 2.01 0.34 1.02 0 0 Z " fill="#7B6DC5" transform="translate(20,21)"/>
<path d="M0 0 C0.33 1.32 0.66 2.64 1 4 C-0.65 4 -2.3 4 -4 4 C-4.33 3.01 -4.66 2.02 -5 1 C-2 0 -2 0 0 0 Z " fill="#2A61CE" transform="translate(14,19)"/>
<path d="M0 0 C2.64 0.33 5.28 0.66 8 1 C6.75 2.5625 6.75 2.5625 5 4 C2.875 3.875 2.875 3.875 1 3 C0.67 2.01 0.34 1.02 0 0 Z " fill="#3934B6" transform="translate(4,15)"/>
<path d="" fill="#F59570" transform="translate(0,0)"/>
<path d="M0 0 C0.66 0 1.32 0 2 0 C1.67 0.66 1.34 1.32 1 2 C0.67 1.34 0.34 0.68 0 0 Z " fill="#F38563" transform="translate(25,7)"/>
<path d="" fill="#F39B7F" transform="translate(0,0)"/>
</svg>
